<svg xmlns="http://www.w3.org/2000/svg" width="24" height="24" fill="none" viewBox="0 0 24 24">
  <path fill="currentColor" d="m12 13.397-4.9 4.9a.948.948 0 0 1-.7.275.948.948 0 0 1-.7-.275.948.948 0 0 1-.274-.7c0-.284.091-.517.275-.7l4.9-4.9-4.9-4.9a.948.948 0 0 1-.275-.7c0-.283.091-.517.275-.7a.948.948 0 0 1 .7-.275c.283 0 .516.092.7.275l4.9 4.9 4.9-4.9a.948.948 0 0 1 .7-.275c.283 0 .516.092.7.275a.948.948 0 0 1 .275.7.948.948 0 0 1-.275.7l-4.9 4.9 4.9 4.9a.948.948 0 0 1 .275.7.949.949 0 0 1-.275.7.949.949 0 0 1-.7.275.948.948 0 0 1-.7-.275l-4.9-4.9Z"/>
</svg>
