<svg xmlns="http://www.w3.org/2000/svg" width="24" height="24" fill="none" viewBox="0 0 24 24">
  <path fill="currentColor" d="m7.72 16.455 1.761-.508 10.603-10.73a.456.456 0 0 0-.003-.64l-.635-.642a.443.443 0 0 0-.632-.003L8.239 14.634l-.519 1.821ZM20.703 2.663l.635.643c.876.887.884 2.318.016 3.196L10.428 17.56l-3.764 1.084a.902.902 0 0 1-1.11-.623.9.9 0 0 1-.002-.506l1.095-3.84L17.544 2.646a2.215 2.215 0 0 1 3.159.017ZM9.184 3.816c.496 0 .898.407.898.91a.903.903 0 0 1-.898.908H5.592c-.992 0-1.796.814-1.796 1.817v10.906c0 1.004.804 1.818 1.796 1.818h10.776c.992 0 1.797-.814 1.797-1.818v-3.635c0-.502.402-.909.898-.909s.898.407.898.91v3.634c0 2.008-1.609 3.636-3.593 3.636H5.592C3.608 21.993 2 20.365 2 18.357V7.451c0-2.007 1.608-3.635 3.592-3.635h3.592Z"/>
</svg>
